<?xml version="1.0" encoding="UTF-8"?>
<svg width="100px" height="100px" viewBox="0 0 100 100" version="1.1" xmlns="http://www.w3.org/2000/svg" xmlns:xlink="http://www.w3.org/1999/xlink">
    <!-- Generator: Sketch 51 (57462) - http://www.bohemiancoding.com/sketch -->
    <title>favicon</title>
    <desc>Created with Sketch.</desc>
    <defs></defs>
    <g id="favicon" stroke="none" stroke-width="1" fill="none" fill-rule="evenodd">
        <g id="Group" fill-rule="nonzero">
            <circle id="Path" fill="#FFC552" cx="50" cy="50" r="50"></circle>
            <g id="noun_458103_cc" transform="translate(50.568986, 50.258367) scale(-1, 1) rotate(20.000000) translate(-50.568986, -50.258367) translate(16.568986, 9.758367)" fill="#FFFFFF" stroke="#FFFFFF" stroke-width="1.8">
                <path d="M32.9579864,0.0490258282 C42.3599546,-0.427769337 50.449735,2.57317534 57.2293717,9.05288303 C63.8383422,15.2594055 67.260863,22.899383 67.5,31.9717923 C67.5,32.4833751 67.5,33.0287223 67.5,33.6088572 L67.5,33.7111738 C67.2271385,42.1348961 64.0427328,49.381978 57.9447388,55.4534426 C57.7066238,55.6918402 57.4674868,55.9138671 57.2293717,56.1174771 L62.3902347,66.9128972 C62.5946253,67.3211403 62.6794474,67.7314297 62.6457229,68.1396727 C62.578274,68.5151745 62.4239591,68.8558887 62.1858441,69.1628383 C61.9129826,69.5045756 61.5726722,69.760367 61.163891,69.9302125 L33.0601817,79.9582585 C32.6514005,80.128104 32.2426192,80.1454978 31.833838,80.0094168 C31.4250568,79.9756523 31.05,79.7873898 30.7096896,79.4466757 C30.505299,79.1387028 30.3346329,78.7816181 30.1987131,78.3713287 L28.6657835,70.9533781 C25.3618092,73.2728945 22.3633989,74.5518515 19.6725965,74.7902491 C15.9250946,75.1995153 12.7917865,73.8356356 10.2706283,70.6975867 C10.0662377,70.390637 9.93031794,70.1010812 9.86184709,69.827896 L6.79598789,57.8568586 L1.73732021,56.2197936 C1.12414837,56.1164539 0.697993944,55.7931336 0.45987888,55.2477863 C0.119568509,54.702439 0.0337244512,54.139698 0.204390613,53.5595631 L3.01476154,44.2999145 L0.357683573,36.6261725 C0.323959122,36.4900915 0.30658592,36.3366167 0.30658592,36.165748 C0.170666162,35.3134511 0.0684708554,34.4949186 0,33.7101506 C0,33.6415985 0,33.5566758 0,33.4543592 C0.477252082,24.4842665 3.88342165,16.7931307 10.2195307,10.3819751 C16.4871688,4.00560717 24.0669947,0.560608624 32.9579864,0.0490258282 Z" id="Shape"></path>
            </g>
            <path d="M57.3724803,22.5833333 C61.7493249,22.5833333 65.05,25.8697388 65.05,30.227661 C65.05,36.3236688 59.0113979,41.9394338 48.337993,51.3401929 L48.2500875,51.4175898 L48.1669805,51.5003376 L47.950096,51.7166667 L47.7330195,51.5005287 L47.6499125,51.4177809 L47.562007,51.340384 C36.8887941,41.9394338 30.85,36.3236688 30.85,30.2278521 C30.85,25.8699299 34.1506751,22.5835244 38.5275197,22.5835244 C40.9462618,22.5835244 43.4339079,23.7425666 45.019468,25.6085004 L47.950096,29.0563882 L50.880532,25.6083093 C52.4660921,23.7423755 54.9537382,22.5833333 57.3724803,22.5833333 Z" id="Shape" fill="#FFC552"></path>
        </g>
    </g>
</svg>