<?xml version="1.0" encoding="utf-8"?>
<!-- Generator: Adobe Illustrator 21.0.0, SVG Export Plug-In . SVG Version: 6.00 Build 0)  -->
<svg version="1.1" id="Layer_1" xmlns="http://www.w3.org/2000/svg" xmlns:xlink="http://www.w3.org/1999/xlink" x="0px" y="0px"
	 viewBox="0 0 77 77" style="enable-background:new 0 0 77 77;" xml:space="preserve">
<style type="text/css">
	.st0{fill:#FFFFFF;}
</style>
<title>Group 6</title>
<desc>Created with Sketch.</desc>
<g id="Group-6" transform="translate(-7.000000, -7.000000)">
	<rect id="Rectangle-Copy-4" width="90" height="90"/>
	<g id="noun_1637686_cc" transform="translate(8.000000, 8.000000)">
		<g id="Group-9" transform="translate(31.000000, 3.000000)">
			<path id="Shape" class="st0" d="M6.4,7.1c1.7,0,3-1.5,3-3.3s-1.4-3.3-3-3.3c-1.7,0-3,1.5-3,3.3S4.8,7.1,6.4,7.1"/>
			<path id="Shape_1_" class="st0" d="M12.3,11.6V9.3c0-1.8-1.4-2.2-3.2-2.2C9.2,7.1,8,8,6.4,8C4.9,8,3.7,7.1,3.7,7.1
				C2,7.1,0.5,7.6,0.5,9.3v2.3c0,0,2.6,1.3,5.9,1.2C10.3,12.7,12.3,11.6,12.3,11.6z"/>
		</g>
		<g id="Group-8" transform="translate(4.000000, 52.000000)">
			<path id="Shape_2_" class="st0" d="M6.2,6.8c1.7,0,3-1.5,3-3.3s-1.4-3.3-3-3.3s-3,1.5-3,3.3S4.5,6.8,6.2,6.8"/>
			<path id="Shape_3_" class="st0" d="M12.1,11.4V9c0-1.8-1.4-2.2-3.2-2.2c0,0-1.1,0.9-2.7,0.9c-1.5,0-2.7-0.9-2.7-0.9
				C1.7,6.8,0.3,7.3,0.3,9v2.3c0,0,2.6,1.3,5.9,1.2C10,12.4,12.1,11.4,12.1,11.4z"/>
		</g>
		<g id="Group-7" transform="translate(59.000000, 52.000000)">
			<path id="Shape_4_" class="st0" d="M6,6.8c1.7,0,3-1.5,3-3.3S7.7,0.2,6,0.2s-3,1.5-3,3.3S4.3,6.8,6,6.8"/>
			<path id="Shape_5_" class="st0" d="M11.9,11.4V9c0-1.8-1.4-2.2-3.2-2.2c0,0-1.1,0.9-2.7,0.9c-1.5,0-2.7-0.9-2.7-0.9
				C1.5,6.8,0.1,7.3,0.1,9v2.3c0,0,2.6,1.3,5.9,1.2C9.9,12.4,11.9,11.4,11.9,11.4z"/>
		</g>
		<path id="Shape_6_" class="st0" d="M69,49.4c0.5-2.2,0.8-4.6,0.8-7c0-14.4-9.4-26.5-22.4-30.8c0.1-0.4,0.1-0.8,0.1-1.3
			c0-5.6-4.5-10.1-10.1-10.1c-5.6,0-10.1,4.5-10.1,10.1c0,0.4,0,0.9,0.1,1.3C14.4,15.9,5,28,5,42.4c0,2.6,0.3,5.1,0.9,7.5
			c-0.5,0.2-1,0.5-1.4,0.8c-2.2,1.5-3.8,3.8-4.3,6.4c-0.5,2.6,0,5.3,1.5,7.6c1.5,2.2,3.8,3.8,6.4,4.3c0.7,0.1,1.3,0.2,2,0.2
			c2,0,3.9-0.6,5.6-1.7c0.2-0.2,0.5-0.3,0.7-0.5c5.7,4.9,13,7.8,21,7.8c8.2,0,15.7-3.1,21.4-8.1c1.7,1.3,3.8,2.1,6.1,2.1
			c5.6,0,10.1-4.5,10.1-10.1C75,54.5,72.5,50.9,69,49.4z M69.1,42.4c0,2.3-0.3,4.6-0.7,6.7c-1.1-0.4-2.2-0.6-3.5-0.6
			c-3.3,0-6.3,1.6-8.1,4.1L50.6,49c1-2,1.6-4.2,1.6-6.6c0-7.8-6.1-14.2-13.7-14.7v-7.3c4.4-0.4,8.1-3.8,8.9-8.1
			C60,16.5,69.1,28.4,69.1,42.4z M37.4,0.9c5.2,0,9.4,4.2,9.4,9.4c0,5.2-4.2,9.4-9.4,9.4S28,15.6,28,10.4C28,5.2,32.2,0.9,37.4,0.9z
			 M5.7,42.4c0-14,9.1-25.9,21.8-30.1c0.8,4.3,4.5,7.7,8.9,8.1v7.3c-7.7,0.5-13.7,6.9-13.7,14.7c0,2.4,0.6,4.7,1.6,6.7l-6.2,3.7
			c-1.5-1.9-3.6-3.2-6-3.7c-1.9-0.4-3.8-0.2-5.5,0.4C6,47.3,5.7,44.9,5.7,42.4z M15.3,66.9c-2.1,1.4-4.6,1.9-7.1,1.4
			c-2.5-0.5-4.6-1.9-6-4c-1.4-2.1-1.9-4.6-1.4-7.1c0.5-2.5,1.9-4.6,4-6c1.6-1,3.4-1.6,5.2-1.6c0.6,0,1.2,0.1,1.9,0.2
			c2.5,0.5,4.6,1.9,6,4c1.4,2.1,1.9,4.6,1.4,7.1C18.9,63.4,17.4,65.5,15.3,66.9z M37.4,74.1c-7.8,0-15-2.9-20.5-7.6
			c1.6-1.4,2.7-3.3,3.1-5.5c0.4-2.2,0.1-4.5-0.9-6.5l6.2-3.7c2.7,3.8,7.1,6.3,12.1,6.3c5,0,9.5-2.5,12.2-6.4l6.2,3.6
			c-0.6,1.3-0.9,2.7-0.9,4.2c0,3,1.4,5.8,3.5,7.6C52.7,71.1,45.4,74.1,37.4,74.1z M64.9,68c-5.2,0-9.4-4.2-9.4-9.4s4.2-9.4,9.4-9.4
			s9.4,4.2,9.4,9.4S70.1,68,64.9,68z"/>
		<path d="M37.4,29c-7.2,0-13,6-13,13.4s5.8,13.4,13,13.4c7.2,0,13-6,13-13.4S44.6,29,37.4,29z"/>
		<path id="Path_1_" class="st0" d="M27.5,47.3v-0.9h9.8c2.5,0,4.5-2,4.5-4.5c0-2.5-2-4.5-4.5-4.5c-2,0-3.7,1.3-4.3,3.1l1.3-0.1
			c0.1,0,0.2,0.1,0.2,0.1c0.1,0.1,0.1,0.2,0,0.2L32.8,44c-0.1,0.1-0.1,0.1-0.2,0.1c-0.1,0-0.1-0.1-0.2-0.1l-1.9-3.1
			c-0.1-0.1-0.1-0.2,0-0.2c0.1-0.1,0.1-0.1,0.2-0.1l1.5-0.1c0.1-0.4,0.3-0.8,0.5-1.2c-0.1,0-0.2,0-0.3,0c-0.5,0-0.9-0.1-1.3-0.3
			c-1.5-0.8-2-2.5-1.2-3.9c0.3-0.6,0.9-1.2,1.7-1.4c0.5-0.1,1-0.2,1.5-0.1l0.2-0.5c0.1-0.1,0.1-0.1,0.2-0.1c0.1,0,0.1,0.1,0.2,0.1
			l1,1.5c0,0.1,0.1,0.2,0,0.2C34.6,35,34.5,35,34.5,35l-1.9,0.1c-0.1,0-0.1-0.1-0.2-0.1c-0.1-0.1-0.1-0.2,0-0.2l0.2-0.4
			c-0.3-0.1-0.5,0-0.8,0.1c-0.5,0.2-1,0.5-1.2,1c-0.5,1-0.1,2.3,0.9,2.8c0.6,0.3,1.4,0.3,2-0.1c1-1,2.3-1.7,3.9-1.7
			c3,0,5.4,2.4,5.4,5.4c0,1.9-1,3.6-2.5,4.5h3.3V45c0-0.1,0.1-0.1,0.1-0.2c0.1-0.1,0.2-0.1,0.2,0l3.2,1.9c0.1,0.1,0.1,0.1,0.2,0.2
			c0,0.1-0.1,0.1-0.1,0.2L44,48.9c-0.1,0-0.1,0-0.1,0c-0.1,0-0.1,0-0.1,0c-0.1,0-0.1-0.1-0.1-0.2v-1.4H27.5z"/>
	</g>
</g>
</svg>
