<?xml version="1.0" encoding="UTF-8"?>
<svg width="77px" height="77px" viewBox="0 0 77 77" version="1.1" xmlns="http://www.w3.org/2000/svg" xmlns:xlink="http://www.w3.org/1999/xlink">
    <!-- Generator: Sketch 48.2 (47327) - http://www.bohemiancoding.com/sketch -->
    <title>Group 6</title>
    <desc>Created with Sketch.</desc>
    <defs></defs>
    <g id="Page-1" stroke="none" stroke-width="1" fill="none" fill-rule="evenodd">
        <g id="Group-6" transform="translate(-7.000000, -7.000000)">
            <rect id="Rectangle-Copy-4" x="0" y="0" width="90" height="90"></rect>
            <g id="noun_1637686_cc" transform="translate(8.000000, 8.000000)">
                <g id="Group-9" transform="translate(31.000000, 3.000000)" fill="#000000" fill-rule="nonzero">
                    <path d="M6.4277265,7.11148923 C8.10057914,7.11148923 9.46527559,5.61472622 9.46527559,3.76578468 C9.46527559,1.91684314 8.10057907,0.464102528 6.4277265,0.464102528 C4.75487112,0.464102528 3.39017741,1.96086554 3.39017741,3.80980781 C3.39017741,5.65875007 4.75487668,7.11148923 6.4277265,7.11148923" id="Shape"></path>
                    <path d="M12.3267325,11.6458013 L12.3267325,9.26858891 C12.3267325,7.50769283 10.9180156,7.11148916 9.15711954,7.11148916 C9.15711954,7.11148916 8.01253577,7.99193857 6.42772932,7.99193857 C4.9309663,7.99193857 3.69833909,7.11148916 3.69833909,7.11148916 C1.98146339,7.11148916 0.528723433,7.55171452 0.528723433,9.31261197 L0.528723433,11.6457999 C0.528723433,11.6457999 3.17006748,12.9664733 6.42772932,12.8344054 C10.3017006,12.702339 12.3267325,11.6458013 12.3267325,11.6458013 Z" id="Shape"></path>
                </g>
                <g id="Group-8" transform="translate(4.000000, 52.000000)" fill="#000000" fill-rule="nonzero">
                    <path d="M6.15808231,6.83223038 C7.83093632,6.83223038 9.19563139,5.33546737 9.19563139,3.48652511 C9.19563139,1.63758284 7.83093624,0.184840211 6.15808231,0.184840211 C4.48522837,0.184840211 3.12053387,1.68160323 3.12053387,3.53054549 C3.12053387,5.37948775 4.48523176,6.83223038 6.15808231,6.83223038" id="Shape"></path>
                    <path d="M12.0570896,11.3665397 L12.0570896,8.98932594 C12.0570896,7.22842987 10.6483727,6.83223038 8.88747528,6.83223038 C8.88747528,6.83223038 7.74289288,7.71267568 6.15808642,7.71267568 C4.66132203,7.71267568 3.42869619,6.83223038 3.42869619,6.83223038 C1.7118205,6.83223038 0.259080539,7.27245025 0.259080539,9.03335182 L0.259080539,11.3665397 C0.259080539,11.3665397 2.90042458,12.6872104 6.15808642,12.5551439 C10.0320577,12.4230774 12.0570896,11.3665397 12.0570896,11.3665397 Z" id="Shape"></path>
                </g>
                <g id="Group-7" transform="translate(59.000000, 52.000000)" fill="#000000" fill-rule="nonzero">
                    <path d="M5.97771684,6.83223038 C7.65057222,6.83223038 9.01526318,5.33546737 9.01526318,3.48652511 C9.01526318,1.63758284 7.65057222,0.184840211 5.97771684,0.184840211 C4.30486146,0.184840211 2.94017049,1.68160323 2.94017049,3.53054549 C2.94017049,5.37948775 4.30486694,6.83223038 5.97771684,6.83223038" id="Shape"></path>
                    <path d="M11.8767227,11.3665397 L11.8767227,8.98932594 C11.8767227,7.22842987 10.4680059,6.83223038 8.70710981,6.83223038 C8.70710981,6.83223038 7.56252604,7.71267568 5.97772233,7.71267568 C4.48095382,7.71267568 3.24832936,6.83223038 3.24832936,6.83223038 C1.53145366,6.83223038 0.0787164444,7.27245025 0.0787164444,9.03335182 L0.0787164444,11.3665397 C0.0787164444,11.3665397 2.72005774,12.6872104 5.97772233,12.5551439 C9.85169366,12.4230774 11.8767227,11.3665397 11.8767227,11.3665397 Z" id="Shape"></path>
                </g>
                <path d="M69.0010388,49.3604406 C69.5004336,47.1107133 69.7843869,44.7808425 69.7843869,42.3826822 C69.7843869,28.0315494 60.3884188,15.8516788 47.4298986,11.6253535 C47.4827958,11.2074995 47.5190608,10.7846244 47.5190608,10.3526513 C47.5190608,4.7820385 42.9870923,0.250070833 37.4164803,0.250070833 C31.8461958,0.250070833 27.3142306,4.78203767 27.3142306,10.3526513 C27.3142306,10.7846244 27.3504957,11.2074995 27.4033896,11.6253535 C14.4451555,15.8516788 5.049235,28.0315494 5.049235,42.3826822 C5.049235,44.9501514 5.37010667,47.4406815 5.94030692,49.8357583 C5.44679475,50.0607173 4.96402575,50.3164673 4.503897,50.6233407 C2.25833058,52.1190708 0.7296725,54.4005331 0.19981225,57.04621 C-0.330048,59.6925482 0.202117333,62.386303 1.69850308,64.6321997 C3.19455942,66.8780963 5.47569192,68.4060988 8.1216995,68.9362844 C8.78954092,69.0699832 9.46001692,69.1358503 10.1262124,69.1358503 C12.0984507,69.1358503 14.028209,68.5562643 15.7070318,67.4372673 C15.9438069,67.2795678 16.1680666,67.1084087 16.3885815,66.9337083 C22.0492188,71.7937533 29.3875248,74.7499276 37.4164835,74.7499276 C45.6161435,74.7499276 53.0960973,71.6675823 58.8033676,66.6219331 C60.4996872,67.9111418 62.6072756,68.6860086 64.8974228,68.6860086 C70.4680316,68.6860084 75,64.15404 75,58.5834313 C75,54.4744618 72.5305875,50.9372584 69.0010388,49.3604406 Z M69.1099548,42.3826822 C69.1099548,44.6926308 68.8407898,46.9379075 68.3674876,49.1078567 C67.2833952,48.7094752 66.117967,48.4808508 64.8974228,48.4808508 C61.5607643,48.4808508 58.6056582,50.1137352 56.7649778,52.6149304 L50.608565,48.9855607 C51.6050974,46.9985008 52.1692912,44.7570927 52.1692912,42.3827647 C52.1692912,34.5754782 46.1034775,28.1887944 38.4281222,27.6684411 L38.4281222,20.4036522 C42.8757032,19.9593718 46.4792633,16.6181485 47.3265775,12.3003149 C59.960645,16.4702066 69.1099548,28.3693791 69.1099548,42.3826822 Z M37.4164804,0.924498667 C42.6149718,0.924498667 46.8446318,5.15383008 46.8446318,10.3526517 C46.8446318,15.5511431 42.6149718,19.7804741 37.4164804,19.7804741 C32.217989,19.7804741 27.9886564,15.5511431 27.9886564,10.3526517 C27.9886563,5.15383008 32.217989,0.924498667 37.4164804,0.924498667 Z M5.72366158,42.3826822 C5.72366158,28.3692964 14.8729293,16.4701239 27.5067115,12.300272 C28.3539876,16.6181056 31.9575445,19.959329 36.4048393,20.4036506 L36.4048393,27.6684824 C28.7296048,28.1889598 22.6639152,34.5755608 22.6639152,42.3827647 C22.6639152,44.8022079 23.2500879,47.0834222 24.2823927,49.0982659 L18.0719733,52.8319422 C16.5854668,50.9156863 14.4910948,49.6056111 12.0892294,49.1243234 C10.2140546,48.7481275 8.3179275,48.9161173 6.57130717,49.5730081 C6.02942625,47.2605896 5.72366158,44.8582713 5.72366158,42.3826822 Z M15.3329341,66.876119 C13.2375336,68.2723936 10.7232492,68.768336 8.25408142,68.2750321 C5.78491292,67.7804058 3.65592242,66.3538361 2.25964708,64.258105 C0.86337175,62.1623739 0.36644225,59.6484185 0.86106625,57.1792539 C1.35569025,54.7094218 2.78226225,52.5807635 4.8779925,51.1844889 C6.44485075,50.1399168 8.24519,49.5991898 10.0860342,49.5991898 C10.7074436,49.5991898 11.3337914,49.6610959 11.9568459,49.7855758 C14.4260137,50.2802022 16.5550041,51.7067718 17.9512803,53.8025029 C19.3478854,55.898234 19.8444843,58.4121894 19.3498611,60.881354 C18.8552363,63.3511861 17.4286652,65.4798444 15.3329341,66.876119 Z M37.4164804,74.0755018 C29.5915731,74.0755018 22.4363629,71.2079938 16.9041968,66.4890162 C18.4910615,65.0485738 19.5824369,63.1547928 20.0111167,61.0143979 C20.4559723,58.7925848 20.1429224,56.5407181 19.148612,54.5452245 L25.3259786,50.8315913 C27.9934724,54.6417109 32.4125703,57.1354548 37.4166043,57.1354548 C42.4662463,57.1354548 46.9214026,54.5970471 49.5808283,50.7281048 L55.7342783,54.3557421 C55.1374435,55.6439272 54.7948392,57.0728428 54.7948392,58.5834312 C54.7948392,61.6183916 56.1463737,64.338169 58.2718594,66.1916096 C52.6943779,71.0875448 45.4043516,74.0755018 37.4164804,74.0755018 Z M64.8974228,68.0115827 C59.6989313,68.0115827 55.4692649,63.7819227 55.4692649,58.5834313 C55.4692649,53.3849398 59.6989313,49.1552766 64.8974228,49.1552766 C70.0959142,49.1552766 74.3255742,53.3849398 74.3255742,58.5834313 C74.3255742,63.7819227 70.0959142,68.0115827 64.8974228,68.0115827 Z" id="Shape" stroke="#000000" fill="#000000" fill-rule="nonzero"></path>
                <path d="M37.428159,55.4281552 C30.2602252,55.4281552 24.4281546,49.5960925 24.4281546,42.4281575 C24.4281546,35.2602224 30.2602252,29.4281552 37.428159,29.4281552 C44.5960929,29.4281552 50.4281546,35.2602224 50.4281546,42.4281575 C50.4281546,49.5960925 44.5960929,55.4281552 37.428159,55.4281552 Z" id="Path" fill="#FFFFFF"></path>
                <path d="M27.5499878,47.30299 L27.5499878,46.4298858 L37.3869751,46.4298858 C39.8898694,46.4298858 41.9271115,44.3926409 41.9271115,41.8897524 C41.9271115,39.3868581 39.8898695,37.3496189 37.3869751,37.3496189 C35.349736,37.3496189 33.6617196,38.6883697 33.0796492,40.4927697 L34.360208,40.4345778 C34.4183999,40.4345778 34.5348209,40.4927697 34.5930499,40.5509988 C34.6512418,40.6091907 34.6512418,40.7256116 34.5930499,40.7838035 L32.8468416,44.0434154 C32.7886154,44.1016073 32.7304207,44.1597991 32.6721944,44.1597991 C32.6139997,44.1597991 32.5558079,44.1016072 32.4975816,44.0434154 L30.5767577,40.9002245 C30.5185629,40.8420354 30.5185629,40.7256117 30.5767577,40.6673826 C30.6349496,40.6091907 30.6931786,40.5509989 30.7513705,40.5509989 L32.2647741,40.4927698 C32.3811578,40.0853151 32.5558078,39.6778948 32.7304206,39.3286319 C32.6139997,39.3286319 32.5558078,39.3286319 32.4393869,39.3286319 C31.9737375,39.3286319 31.5080537,39.212211 31.1006361,38.9794034 C29.6454588,38.2227202 29.1215831,36.476512 29.8782663,35.0795322 C30.2275292,34.43927 30.8095967,33.9153943 31.5662827,33.6825496 C32.0319321,33.5661659 32.5558078,33.5079368 33.0214572,33.6243605 L33.2542619,33.1587111 C33.312491,33.100482 33.3706829,33.0422873 33.428912,33.0422873 C33.4871039,33.0422873 33.5452985,33.1004821 33.6035248,33.1587111 L34.6512417,34.6720775 C34.6512417,34.7303037 34.7094364,34.8466903 34.6512417,34.9049194 C34.5930498,34.9631113 34.5348208,35.0213403 34.4766289,35.0213403 L32.6139997,35.1377269 C32.5558078,35.1377269 32.4975816,35.0795321 32.4393869,35.0213403 C32.3811578,34.9631112 32.3811578,34.8466903 32.4393869,34.7884985 L32.6139997,34.3810438 C32.3229659,34.322849 32.0901212,34.3810438 31.7990874,34.43927 C31.2752461,34.6138828 30.8095967,34.9631113 30.5767577,35.4287607 C30.052882,36.476512 30.4603368,37.6988446 31.4498589,38.2227202 C32.0901212,38.5719487 32.8468416,38.5719487 33.4871038,38.1644941 C34.4766289,37.1167742 35.8153824,36.476512 37.386975,36.476512 C40.3555158,36.476512 42.7420236,38.8629825 42.7420236,41.8315234 C42.7420236,43.7523789 41.7524956,45.4403609 40.2390978,46.3716941 L43.5568986,46.3716941 L43.5568986,44.9747114 C43.5568986,44.9165195 43.6151277,44.8582904 43.6733196,44.8000985 C43.7315487,44.7418694 43.8479352,44.7418694 43.9061614,44.8000985 L47.1075442,46.6627277 C47.1657361,46.7209196 47.2239279,46.7791143 47.282157,46.8955353 C47.282157,46.9537615 47.2239279,47.0119562 47.1657361,47.0701481 L43.9643533,48.8745855 C43.9061614,48.8745855 43.9061614,48.8745855 43.8479352,48.8745855 C43.7897405,48.8745855 43.7897405,48.8745855 43.7315487,48.8745855 C43.6733196,48.8745855 43.6151277,48.7581617 43.6151277,48.6999698 L43.6151277,47.3029901 L27.5499878,47.3029901 Z" id="Path" stroke="#000000" stroke-width="0.5" fill="#000000"></path>
            </g>
        </g>
    </g>
</svg>