<?xml version="1.0" encoding="UTF-8"?>
<svg width="20px" height="20px" viewBox="0 0 20 20" version="1.1" xmlns="http://www.w3.org/2000/svg" xmlns:xlink="http://www.w3.org/1999/xlink">
    <!-- Generator: Sketch 48.2 (47327) - http://www.bohemiancoding.com/sketch -->
    <title>icon_settings</title>
    <desc>Created with Sketch.</desc>
    <defs></defs>
    <g id="icon_settings-(white)" stroke="none" stroke-width="1" fill="none" fill-rule="evenodd" transform="translate(-2.000000, -2.000000)" stroke-linecap="round" stroke-linejoin="round">
        <g id="icon_settings" transform="translate(3.000000, 3.000000)" stroke="#FFFFFF">
            <g id="Group">
                <path d="M9.2581875,5.99925 L8.2115625,5.24925 C8.25,5.014125 8.2636875,4.773375 8.252625,4.53075 L9.379125,3.906375 L8.8725,2.4508125 L7.602,2.6608125 C7.459875,2.46375 7.29975,2.2835625 7.1233125,2.12325 L7.478625,0.885375 L6.0909375,0.2143125 L5.341125,1.261125 C5.106,1.2225 4.86525,1.209 4.623,1.22025 L3.9976875,0.09375 L2.5425,0.6005625 L2.7525,1.8714375 C2.5554375,2.0131875 2.3750625,2.1733125 2.21475,2.34975 L0.9770625,1.9948125 L0.306,3.3823125 L1.3528125,4.132125 C1.314375,4.36725 1.3006875,4.608 1.31175,4.850625 L0.1850625,5.475 L0.6916875,6.9305625 L1.962375,6.7205625 C2.1045,6.917625 2.264625,7.0978125 2.440875,7.2583125 L2.08575,8.496 L3.47325,9.166875 L4.22325,8.1200625 C4.458375,8.1586875 4.699125,8.1721875 4.941375,8.161125 L5.566125,9.287625 L9.2581875,5.99925 Z M5.4898125,6.7239375 C4.3670625,7.1146875 3.1396875,6.5214375 2.7489375,5.3985 C2.358,4.2755625 2.9514375,3.048375 4.074375,2.657625 C5.197125,2.266875 6.4243125,2.860125 6.8150625,3.9830625 C7.206375,5.1058125 6.61275,6.333 5.4898125,6.7239375 Z" id="Shape"></path>
                <path d="M17.0536875,10.40625 L16.242375,10.40625 C16.160625,10.1533125 16.059,9.7921875 15.939375,9.5589375 L16.5136875,8.984625 C16.7364375,8.7616875 16.736625,8.4 16.5136875,8.176875 L15.1666875,6.83025 C14.94375,6.607125 14.581875,6.6073125 14.3589375,6.83025 L13.7848125,7.404375 C13.551375,7.2849375 13.19025,7.183125 12.937125,7.101375 L12.937125,6.2900625 C12.937125,5.9746875 12.7985625,5.71875 12.483,5.71875 L10.579125,5.71875 C10.2635625,5.71875 10.125,5.9746875 10.125,6.2900625 L10.125,7.101375 C9.871875,7.183125 9.5109375,7.2849375 9.2773125,7.404375 L8.7031875,6.83025 C8.480625,6.6073125 8.11875,6.607125 7.8954375,6.83025 L6.5484375,8.176875 C6.3255,8.4 6.3256875,8.7616875 6.5484375,8.984625 L7.12275,9.5589375 C7.0029375,9.7921875 6.9013125,10.1533125 6.81975,10.40625 L6.0084375,10.40625 C5.69325,10.40625 5.4375,10.5448125 5.4375,10.860375 L5.4375,12.764625 C5.4375,13.0801875 5.69325,13.21875 6.0088125,13.21875 L6.820125,13.21875 C6.901875,13.4716875 7.0035,13.8328125 7.123125,14.0660625 L6.5488125,14.640375 C6.325875,14.8635 6.325875,15.225 6.5488125,15.4483125 L7.8958125,16.7949375 C8.1189375,17.0180625 8.4804375,17.0180625 8.7035625,16.7949375 L9.2776875,16.2208125 C9.511125,16.3400625 9.87225,16.4420625 10.125375,16.5238125 L10.125375,17.335125 C10.125375,17.6505 10.2639375,17.9064375 10.5795,17.9064375 L12.48375,17.9064375 C12.7993125,17.9064375 12.937875,17.6505 12.937875,17.335125 L12.937875,16.5238125 C13.191,16.4420625 13.5519375,16.3400625 13.7855625,16.2208125 L14.3596875,16.7949375 C14.5824375,17.017875 14.9443125,17.0180625 15.1674375,16.7949375 L16.5144375,15.4483125 C16.737375,15.2251875 16.7371875,14.8635 16.5144375,14.640375 L15.940125,14.0660625 C16.0599375,13.8328125 16.1615625,13.471875 16.243125,13.21875 L17.0544375,13.21875 C17.37,13.21875 17.62575,13.0801875 17.62575,12.764625 L17.62575,10.860375 C17.625,10.5448125 17.36925,10.40625 17.0536875,10.40625 Z M11.53125,14.668875 C9.9534375,14.668875 8.674875,13.3899375 8.674875,11.8125 C8.674875,10.234875 9.9534375,8.956125 11.53125,8.956125 C13.1090625,8.956125 14.387625,10.234875 14.387625,11.8125 C14.387625,13.390125 13.1090625,14.668875 11.53125,14.668875 Z" id="Shape"></path>
            </g>
        </g>
    </g>
</svg>