<?xml version="1.0" encoding="utf-8"?>
<!-- Generator: Adobe Illustrator 21.0.0, SVG Export Plug-In . SVG Version: 6.00 Build 0)  -->
<svg version="1.1" id="Layer_1" xmlns="http://www.w3.org/2000/svg" xmlns:xlink="http://www.w3.org/1999/xlink" x="0px" y="0px"
	 viewBox="0 0 78 66" style="enable-background:new 0 0 78 66;" xml:space="preserve">
<style type="text/css">
	.st0{fill:#FFFFFF;}
</style>
<title>noun_229087_cc</title>
<desc>Created with Sketch.</desc>
<g id="Page-1">
	<g id="noun_229087_cc">
		<g id="Group">
			<path id="Shape" class="st0" d="M21.2,14.4h-13C7.5,14.4,7,15,7,15.6v25.8c0,0.7,0.6,1.2,1.2,1.2h13c0.7,0,1.2-0.6,1.2-1.2V15.7
				C22.4,15,21.9,14.4,21.2,14.4z M19.9,40.2H9.4V16.9h10.5V40.2z"/>
			<polygon id="Shape_1_" class="st0" points="53,15.7 53,14.4 27.1,14.4 27.1,15.7 27.1,16.9 53,16.9 			"/>
			<polygon id="Shape_2_" class="st0" points="61.6,21.2 61.6,19.9 27.1,19.9 27.1,21.2 27.1,22.4 61.6,22.4 			"/>
			<rect id="Rectangle-path" x="35.3" y="40.3" class="st0" width="7.4" height="2.5"/>
			<path id="Shape_3_" class="st0" d="M29.9,36.3h-2.5v5.2c0,0.7,0.6,1.2,1.2,1.2h3.2v-2.5h-2v-3.9H29.9z"/>
			<path id="Shape_4_" class="st0" d="M27.4,28.3v5.2h2.5v-4h2V27h-3.2C27.9,27.1,27.4,27.6,27.4,28.3z"/>
			<rect id="Rectangle-path_1_" x="46.1" y="27.1" class="st0" width="7.4" height="2.5"/>
			<rect id="Rectangle-path_2_" x="35.3" y="27.1" class="st0" width="7.4" height="2.5"/>
			<path id="Shape_5_" class="st0" d="M60.1,27.1h-3.2v2.5h2v2h2.5v-3.2C61.4,27.6,60.8,27.1,60.1,27.1z"/>
			<path id="Shape_6_" class="st0" d="M77.6,53.5c0-0.4-0.2-0.8-0.5-1.1L73.9,50V35.7c0-0.7-0.6-1.2-1.2-1.2h-3.2V8.7V2
				c0-0.7-0.6-1.2-1.2-1.2H1.7C1,0.8,0.5,1.4,0.5,2v6.7V48c0,0.7,0.6,1.2,1.2,1.2h32V56H15.9c-0.7,0-1.2,0.6-1.2,1.2v6
				c0,0.7,0.6,1.2,1.2,1.2h37.9c0.7,0,1.2-0.6,1.2-1.2v-6c0-0.7-0.6-1.2-1.2-1.2H36.1v-6.8h16.6v3.4c0,0.7,0.6,1.2,1.2,1.2h10.9
				l0.4,5.7c0,0.4,0.3,0.8,0.7,1c0.2,0.1,0.4,0.1,0.6,0.1s0.5-0.1,0.7-0.2l3.9-2.4l3.7,6.6c0.2,0.4,0.7,0.6,1.1,0.6
				c0.2,0,0.4-0.1,0.6-0.2c0.6-0.3,0.8-1.1,0.5-1.7l-3.8-6.7l3.7-2.3C77.3,54.3,77.6,53.9,77.6,53.5z M71.1,55.2
				C71,55.2,71,55.2,71.1,55.2c-0.1,0.1-0.2,0.1-0.2,0.1l-3.2,1.9l-0.2-3.4l-0.1-1.2l-0.1-1.2l-0.2-2.1L67,48.1l1.4,1.1l2.9,2.1
				l1.2,0.9l1.1,0.9l0.4,0.3L71.1,55.2z M55.2,51.3v-2.1V48v-1.2V37h11.7h1.2h1.2h1.9v11.3l-1.9-1.4L68.1,46l-1.2-0.9l-0.6-0.4
				c-0.4-0.3-0.9-0.3-1.3-0.1c-0.4,0.2-0.7,0.7-0.6,1.2l0.1,1.2l0.1,1.2l0.1,1.2l0.2,2.1h-9.7V51.3z M2.9,3.2h64v4.2h-64V3.2z
				 M2.9,9.9h64v24.5h-5.5v-1.2h-2.5v1.2H54c-0.7,0-1.2,0.6-1.2,1.2v4.6h-6.7v2.5h6.7v3.9H2.9V9.9z M52.6,62H17.2v-3.5h35.4V62z"/>
		</g>
	</g>
</g>
</svg>
