<?xml version="1.0" encoding="UTF-8"?>
<svg width="73px" height="75px" viewBox="0 0 73 75" version="1.1" xmlns="http://www.w3.org/2000/svg" xmlns:xlink="http://www.w3.org/1999/xlink">
    <!-- Generator: Sketch 48.2 (47327) - http://www.bohemiancoding.com/sketch -->
    <title>User Research Icon</title>
    <desc>Created with Sketch.</desc>
    <defs></defs>
    <g id="Page-1" stroke="none" stroke-width="1" fill="none" fill-rule="evenodd">
        <g id="User-Research-Icon" transform="translate(-9.000000, -8.000000)">
            <rect id="Rectangle-Copy-3" x="0" y="0" width="90" height="90"></rect>
            <g id="noun_996184_cc" transform="translate(9.000000, 8.000000)" fill="#000000" fill-rule="nonzero">
                <g id="Group">
                    <rect id="Rectangle-path" x="35.4850746" y="64.2537313" width="1.67910448" height="1.67910448"></rect>
                    <rect id="Rectangle-path" x="35.4850746" y="67.8358209" width="1.67910448" height="1.67910448"></rect>
                    <path d="M72.6492537,5.03731343 C72.6492537,2.68656716 70.7462687,0.895522388 68.5074627,0.895522388 L4.25373134,0.895522388 C1.90298507,0.895522388 0.111940299,2.79850746 0.111940299,5.03731343 L0.111940299,61.4552239 L30.8955224,61.4552239 L30.8955224,68.619403 C30.8955224,71.641791 33.358209,74.1044776 36.380597,74.1044776 C39.4029851,74.1044776 41.8656716,71.641791 41.8656716,68.619403 L41.8656716,61.4552239 L72.6492537,61.4552239 L72.6492537,5.03731343 Z M4.25373134,2.57462687 L68.5074627,2.57462687 C69.8507463,2.57462687 70.9701493,3.69402985 70.9701493,5.03731343 L70.9701493,9.73880597 L1.79104478,9.73880597 L1.79104478,5.03731343 C1.79104478,3.58208955 2.91044776,2.57462687 4.25373134,2.57462687 Z M40.1865672,68.619403 C40.1865672,70.7462687 38.5074627,72.4253731 36.380597,72.4253731 C34.2537313,72.4253731 32.5746269,70.7462687 32.5746269,68.619403 L32.5746269,57.9850746 C32.5746269,57.4253731 33.0223881,56.9776119 33.5820896,56.9776119 L35.0373134,56.9776119 L35.0373134,53.3955224 C35.4850746,53.3955224 35.9328358,53.5074627 36.380597,53.5074627 C36.8283582,53.5074627 37.2761194,53.5074627 37.7238806,53.3955224 L37.7238806,56.9776119 L39.1791045,56.9776119 C39.738806,56.9776119 40.1865672,57.4253731 40.1865672,57.9850746 L40.1865672,68.619403 Z M17.9104478,29.5522388 C17.5746269,29.6641791 17.3507463,29.6641791 17.0149254,29.6641791 C15.2238806,29.6641791 13.7686567,28.2089552 13.7686567,26.4179104 C13.7686567,24.6268657 15.2238806,23.1716418 17.0149254,23.1716418 C18.1343284,23.1716418 19.2537313,23.8432836 19.8134328,24.8507463 C18.9179104,26.3059701 18.2462687,27.8731343 17.9104478,29.5522388 Z M18.2462687,40.5223881 L8.17164179,40.5223881 C8.28358209,39.0671642 8.39552239,37.8358209 8.50746269,36.7164179 C8.50746269,36.6044776 8.50746269,36.6044776 8.50746269,36.4925373 C8.50746269,36.0447761 8.73134328,35.4850746 9.06716418,35.0373134 L9.06716418,34.9253731 C9.29104478,34.5895522 9.62686567,34.2537313 9.96268657,34.0298507 C10.0746269,33.9179104 10.2985075,33.9179104 10.4104478,33.8059701 L12.5373134,33.0223881 L14.2164179,37.2761194 L17.3507463,37.2761194 C17.6865672,38.5074627 17.9104478,39.5149254 18.2462687,40.5223881 Z M18.9179104,34.3656716 C18.9179104,24.738806 26.7537313,16.9029851 36.380597,16.9029851 C46.0074627,16.9029851 53.8432836,24.738806 53.8432836,34.3656716 C53.8432836,43.9925373 46.0074627,51.8283582 36.380597,51.8283582 C26.7537313,51.8283582 18.9179104,43.9925373 18.9179104,34.3656716 Z M55.2985075,37.5 L58.4328358,37.5 L60.1119403,33.2462687 L62.238806,34.0298507 C62.3507463,34.141791 62.5746269,34.141791 62.6865672,34.2537313 C63.1343284,34.4776119 63.358209,34.8134328 63.6940299,35.1492537 L63.6940299,35.261194 C64.0298507,35.8208955 64.141791,36.2686567 64.2537313,36.7164179 L64.2537313,36.8283582 C64.3656716,37.9477612 64.5895522,39.1791045 64.5895522,40.6343284 L54.5149254,40.6343284 C54.8507463,39.5149254 55.0746269,38.5074627 55.2985075,37.5 Z M53.0597015,24.8507463 C53.619403,23.8432836 54.6268657,23.1716418 55.858209,23.1716418 C57.6492537,23.1716418 59.1044776,24.6268657 59.1044776,26.4179104 C59.1044776,28.2089552 57.6492537,29.6641791 55.858209,29.6641791 C55.5223881,29.6641791 55.2985075,29.5522388 54.9626866,29.5522388 C54.5149254,27.8731343 53.8432836,26.3059701 53.0597015,24.8507463 Z M41.8656716,59.7761194 L41.8656716,57.9850746 C41.8656716,56.5298507 40.7462687,55.4104478 39.4029851,55.2985075 L39.4029851,53.1716418 C45.7835821,52.1641791 51.1567164,47.9104478 53.7313433,42.2014925 L66.2686567,42.2014925 L66.2686567,41.3059701 C66.1567164,39.5149254 66.0447761,37.8358209 65.8208955,36.380597 C65.7089552,35.7089552 65.4850746,34.9253731 65.1492537,34.2537313 L65.1492537,34.141791 C64.8134328,33.4701493 64.2537313,32.9104478 63.5820896,32.5746269 C63.358209,32.4626866 63.1343284,32.3507463 62.9104478,32.238806 L59.2164179,30.8955224 L57.2014925,35.8208955 L55.4104478,35.8208955 C55.4104478,35.3731343 55.5223881,34.8134328 55.5223881,34.3656716 C55.5223881,33.358209 55.4104478,32.3507463 55.2985075,31.3432836 C55.5223881,31.3432836 55.6343284,31.3432836 55.858209,31.3432836 C58.5447761,31.3432836 60.7835821,29.1044776 60.7835821,26.4179104 C60.7835821,23.7313433 58.5447761,21.4925373 55.858209,21.4925373 C54.4029851,21.4925373 53.0597015,22.1641791 52.0522388,23.2835821 C48.5820896,18.358209 42.8731343,15.1119403 36.380597,15.1119403 C29.8880597,15.1119403 24.1791045,18.358209 20.7089552,23.2835821 C19.8134328,22.1641791 18.4701493,21.4925373 16.9029851,21.4925373 C14.2164179,21.4925373 11.9776119,23.7313433 11.9776119,26.4179104 C11.9776119,29.1044776 14.2164179,31.3432836 16.9029851,31.3432836 C17.1268657,31.3432836 17.238806,31.3432836 17.4626866,31.3432836 C17.3507463,32.3507463 17.238806,33.358209 17.238806,34.3656716 C17.238806,34.8134328 17.238806,35.3731343 17.3507463,35.8208955 L15.5597015,35.8208955 L13.7686567,31.0074627 L10.0746269,32.3507463 C9.85074627,32.4626866 9.62686567,32.5746269 9.40298507,32.6865672 C8.73134328,33.0223881 8.17164179,33.5820896 7.8358209,34.2537313 L7.7238806,34.4776119 C7.3880597,35.1492537 7.1641791,35.8208955 7.05223881,36.6044776 C6.82835821,37.9477612 6.71641791,39.5149254 6.60447761,41.4179104 L6.60447761,42.3134328 L19.141791,42.3134328 C21.7164179,48.0223881 27.0895522,52.2761194 33.4701493,53.2835821 L33.4701493,55.4104478 C32.1268657,55.5223881 31.0074627,56.641791 31.0074627,58.0970149 L31.0074627,59.8880597 L1.90298507,59.8880597 L1.90298507,11.3059701 L71.0820896,11.3059701 L71.0820896,59.6641791 L41.8656716,59.6641791 L41.8656716,59.7761194 Z" id="Shape"></path>
                    <rect id="Rectangle-path" x="56.8656716" y="5.26119403" width="1.67910448" height="1.67910448"></rect>
                    <rect id="Rectangle-path" x="61.119403" y="5.26119403" width="1.67910448" height="1.67910448"></rect>
                    <rect id="Rectangle-path" x="65.3731343" y="5.26119403" width="1.67910448" height="1.67910448"></rect>
                    <rect id="Rectangle-path" x="6.71641791" y="5.26119403" width="44.6641791" height="1.67910448"></rect>
                    <path d="M48.8059701,43.2089552 C48.6940299,40.9701493 48.4701493,39.0671642 48.2462687,37.5 L48.2462687,37.3880597 C48.1343284,36.6044776 47.9104478,35.7089552 47.4626866,34.9253731 L47.3507463,34.8134328 C46.9029851,34.0298507 46.2313433,33.4701493 45.4477612,33.0223881 C45.2238806,32.9104478 44.8880597,32.7985075 44.6641791,32.6865672 L40.4104478,31.119403 L37.9477612,37.5 L34.9253731,37.5 L32.4626866,31.119403 L28.2089552,32.6865672 C27.0895522,33.1343284 26.0820896,33.9179104 25.5223881,34.9253731 C24.9626866,35.9328358 24.6268657,36.8283582 24.6268657,37.8358209 C24.5149254,38.2835821 24.1791045,40.0746269 24.0671642,43.3208955 L24.0671642,44.2164179 L48.9179104,44.2164179 L48.8059701,43.2089552 Z M25.7462687,42.4253731 C25.858209,39.5149254 26.1940299,38.0597015 26.1940299,37.9477612 L26.1940299,37.7238806 C26.1940299,36.8283582 26.5298507,36.0447761 26.8656716,35.5970149 C27.2014925,34.9253731 27.8731343,34.3656716 28.6567164,34.141791 L31.4552239,33.1343284 L33.6940299,39.0671642 L39.0671642,39.0671642 L41.3059701,33.1343284 L43.9925373,34.141791 C44.2164179,34.2537313 44.3283582,34.2537313 44.5522388,34.3656716 C45,34.5895522 45.4477612,35.0373134 45.7835821,35.4850746 L45.7835821,35.5970149 C46.119403,36.2686567 46.3432836,36.8283582 46.4552239,37.3880597 C46.4552239,37.3880597 46.4552239,37.5 46.4552239,37.6119403 C46.6791045,38.9552239 46.7910448,40.5223881 46.9029851,42.3134328 L25.7462687,42.3134328 L25.7462687,42.4253731 Z" id="Shape"></path>
                    <path d="M36.380597,31.0074627 C39.5149254,31.0074627 42.0895522,28.4328358 42.0895522,25.2985075 C42.0895522,22.1641791 39.5149254,19.5895522 36.380597,19.5895522 C33.2462687,19.5895522 30.6716418,22.1641791 30.6716418,25.2985075 C30.6716418,28.4328358 33.2462687,31.0074627 36.380597,31.0074627 Z M36.380597,21.380597 C38.619403,21.380597 40.4104478,23.1716418 40.4104478,25.4104478 C40.4104478,27.6492537 38.619403,29.4402985 36.380597,29.4402985 C34.141791,29.4402985 32.3507463,27.6492537 32.3507463,25.4104478 C32.3507463,23.1716418 34.141791,21.380597 36.380597,21.380597 Z" id="Shape"></path>
                </g>
            </g>
        </g>
    </g>
</svg>