<?xml version="1.0" encoding="utf-8"?>
<!-- Generator: Adobe Illustrator 21.0.0, SVG Export Plug-In . SVG Version: 6.00 Build 0)  -->
<svg version="1.1" id="Layer_1" xmlns="http://www.w3.org/2000/svg" xmlns:xlink="http://www.w3.org/1999/xlink" x="0px" y="0px"
	 viewBox="0 0 73 75" style="enable-background:new 0 0 73 75;" xml:space="preserve">
<style type="text/css">
	.st0{fill:#FFFFFF;}
</style>
<title>User Research Icon</title>
<desc>Created with Sketch.</desc>
<g id="Page-1">
	<g id="User-Research-Icon" transform="translate(-9.000000, -8.000000)">
		<g id="noun_996184_cc" transform="translate(9.000000, 8.000000)">
			<g id="Group">
				<rect id="Rectangle-path" x="35.5" y="64.3" class="st0" width="1.7" height="1.7"/>
				<rect id="Rectangle-path_1_" x="35.5" y="67.8" class="st0" width="1.7" height="1.7"/>
				<path id="Shape" class="st0" d="M72.6,5c0-2.4-1.9-4.1-4.1-4.1H4.3C1.9,0.9,0.1,2.8,0.1,5v56.4h30.8v7.2c0,3,2.5,5.5,5.5,5.5
					s5.5-2.5,5.5-5.5v-7.2h30.8V5z M4.3,2.6h64.3C69.9,2.6,71,3.7,71,5v4.7H1.8V5C1.8,3.6,2.9,2.6,4.3,2.6z M40.2,68.6
					c0,2.1-1.7,3.8-3.8,3.8s-3.8-1.7-3.8-3.8V58c0-0.6,0.4-1,1-1H35v-3.6c0.4,0,0.9,0.1,1.3,0.1s0.9,0,1.3-0.1V57h1.5
					c0.6,0,1,0.4,1,1V68.6z M17.9,29.6c-0.3,0.1-0.6,0.1-0.9,0.1c-1.8,0-3.2-1.5-3.2-3.2c0-1.8,1.5-3.2,3.2-3.2
					c1.1,0,2.2,0.7,2.8,1.7C18.9,26.3,18.2,27.9,17.9,29.6z M18.2,40.5H8.2c0.1-1.5,0.2-2.7,0.3-3.8c0-0.1,0-0.1,0-0.2
					c0-0.4,0.2-1,0.6-1.5v-0.1c0.2-0.3,0.6-0.7,0.9-0.9c0.1-0.1,0.3-0.1,0.4-0.2l2.1-0.8l1.7,4.3h3.1C17.7,38.5,17.9,39.5,18.2,40.5
					z M18.9,34.4c0-9.6,7.8-17.5,17.5-17.5s17.5,7.8,17.5,17.5S46,51.8,36.4,51.8S18.9,44,18.9,34.4z M55.3,37.5h3.1l1.7-4.3
					l2.1,0.8c0.1,0.1,0.3,0.1,0.4,0.2c0.4,0.2,0.7,0.6,1,0.9v0.1c0.3,0.6,0.4,1,0.6,1.5v0.1c0.1,1.1,0.3,2.4,0.3,3.8H54.5
					C54.9,39.5,55.1,38.5,55.3,37.5z M53.1,24.9c0.6-1,1.6-1.7,2.8-1.7c1.8,0,3.2,1.5,3.2,3.2c0,1.8-1.5,3.2-3.2,3.2
					c-0.3,0-0.6-0.1-0.9-0.1C54.5,27.9,53.8,26.3,53.1,24.9z M41.9,59.8V58c0-1.5-1.1-2.6-2.5-2.7v-2.1c6.4-1,11.8-5.3,14.3-11h12.5
					v-0.9c-0.1-1.8-0.2-3.5-0.4-4.9c-0.1-0.7-0.3-1.5-0.7-2.1v-0.1c-0.3-0.7-0.9-1.2-1.6-1.6c-0.2-0.1-0.4-0.2-0.7-0.3l-3.7-1.3
					l-2,4.9h-1.8c0-0.4,0.1-1,0.1-1.5c0-1-0.1-2-0.2-3c0.2,0,0.3,0,0.6,0c2.7,0,4.9-2.2,4.9-4.9s-2.2-4.9-4.9-4.9
					c-1.5,0-2.8,0.7-3.8,1.8c-3.5-4.9-9.2-8.2-15.7-8.2s-12.2,3.2-15.7,8.2c-0.9-1.1-2.2-1.8-3.8-1.8c-2.7,0-4.9,2.2-4.9,4.9
					s2.2,4.9,4.9,4.9c0.2,0,0.3,0,0.6,0c-0.1,1-0.2,2-0.2,3c0,0.4,0,1,0.1,1.5h-1.8L13.8,31l-3.7,1.3c-0.2,0.1-0.4,0.2-0.7,0.3
					c-0.7,0.3-1.2,0.9-1.6,1.6l-0.1,0.2c-0.3,0.7-0.6,1.3-0.7,2.1c-0.2,1.3-0.3,2.9-0.4,4.8v0.9h12.5c2.6,5.7,7.9,10,14.3,11v2.1
					c-1.3,0.1-2.5,1.2-2.5,2.7v1.8H1.9V11.3h69.2v48.4H41.9V59.8z"/>
				<rect id="Rectangle-path_2_" x="56.9" y="5.3" class="st0" width="1.7" height="1.7"/>
				<rect id="Rectangle-path_3_" x="61.1" y="5.3" class="st0" width="1.7" height="1.7"/>
				<rect id="Rectangle-path_4_" x="65.4" y="5.3" class="st0" width="1.7" height="1.7"/>
				<rect id="Rectangle-path_5_" x="6.7" y="5.3" class="st0" width="44.7" height="1.7"/>
				<path id="Shape_1_" class="st0" d="M48.8,43.2c-0.1-2.2-0.3-4.1-0.6-5.7v-0.1c-0.1-0.8-0.3-1.7-0.8-2.5l-0.1-0.1
					c-0.4-0.8-1.1-1.3-1.9-1.8c-0.2-0.1-0.6-0.2-0.8-0.3l-4.3-1.6l-2.5,6.4h-3l-2.5-6.4l-4.3,1.6c-1.1,0.4-2.1,1.2-2.7,2.2
					s-0.9,1.9-0.9,2.9c-0.1,0.4-0.4,2.2-0.6,5.5v0.9h24.9L48.8,43.2z M25.7,42.4c0.1-2.9,0.4-4.4,0.4-4.5v-0.2
					c0-0.9,0.3-1.7,0.7-2.1c0.3-0.7,1-1.2,1.8-1.5l2.8-1l2.2,5.9h5.4l2.2-5.9l2.7,1c0.2,0.1,0.3,0.1,0.6,0.2
					c0.4,0.2,0.9,0.7,1.2,1.1v0.1c0.3,0.7,0.6,1.2,0.7,1.8c0,0,0,0.1,0,0.2c0.2,1.3,0.3,2.9,0.4,4.7H25.7V42.4z"/>
				<path id="Shape_2_" class="st0" d="M36.4,31c3.1,0,5.7-2.6,5.7-5.7s-2.6-5.7-5.7-5.7c-3.1,0-5.7,2.6-5.7,5.7S33.2,31,36.4,31z
					 M36.4,21.4c2.2,0,4,1.8,4,4s-1.8,4-4,4c-2.2,0-4-1.8-4-4S34.1,21.4,36.4,21.4z"/>
			</g>
		</g>
	</g>
</g>
</svg>
