<?xml version="1.0" encoding="UTF-8"?>
<svg width="1227px" height="222px" viewBox="0 0 1227 222" version="1.1" xmlns="http://www.w3.org/2000/svg" xmlns:xlink="http://www.w3.org/1999/xlink">
    <!-- Generator: Sketch 51 (57462) - http://www.bohemiancoding.com/sketch -->
    <title>logo</title>
    <desc>Created with Sketch.</desc>
    <defs>
        <linearGradient x1="50%" y1="100%" x2="50%" y2="0%" id="linearGradient-1">
            <stop stop-color="#4A4A4A" offset="0%"></stop>
            <stop stop-color="#303030" offset="100%"></stop>
        </linearGradient>
    </defs>
    <g id="Page-1" stroke="none" stroke-width="1" fill="none" fill-rule="evenodd">
        <g id="logo">
            <polygon id="Rectangle-2" fill="url(#linearGradient-1)" points="0.759340883 0 1226.24066 0 993.183698 222 233.816302 222"></polygon>
            <g id="Group" transform="translate(241.000000, 54.000000)">
                <g id="noun_458103_cc" transform="translate(484.650000, 60.750000) scale(-1, 1) rotate(20.000000) translate(-484.650000, -60.750000) translate(450.900000, 20.700000)" fill="#FFFFFF" fill-rule="nonzero" stroke="#FFFFFF" stroke-width="1.8">
                    <path d="M32.9579864,0.0490258282 C42.3599546,-0.427769337 50.449735,2.57317534 57.2293717,9.05288303 C63.8383422,15.2594055 67.260863,22.899383 67.5,31.9717923 C67.5,32.4833751 67.5,33.0287223 67.5,33.6088572 L67.5,33.7111738 C67.2271385,42.1348961 64.0427328,49.381978 57.9447388,55.4534426 C57.7066238,55.6918402 57.4674868,55.9138671 57.2293717,56.1174771 L62.3902347,66.9128972 C62.5946253,67.3211403 62.6794474,67.7314297 62.6457229,68.1396727 C62.578274,68.5151745 62.4239591,68.8558887 62.1858441,69.1628383 C61.9129826,69.5045756 61.5726722,69.760367 61.163891,69.9302125 L33.0601817,79.9582585 C32.6514005,80.128104 32.2426192,80.1454978 31.833838,80.0094168 C31.4250568,79.9756523 31.05,79.7873898 30.7096896,79.4466757 C30.505299,79.1387028 30.3346329,78.7816181 30.1987131,78.3713287 L28.6657835,70.9533781 C25.3618092,73.2728945 22.3633989,74.5518515 19.6725965,74.7902491 C15.9250946,75.1995153 12.7917865,73.8356356 10.2706283,70.6975867 C10.0662377,70.390637 9.93031794,70.1010812 9.86184709,69.827896 L6.79598789,57.8568586 L1.73732021,56.2197936 C1.12414837,56.1164539 0.697993944,55.7931336 0.45987888,55.2477863 C0.119568509,54.702439 0.0337244512,54.139698 0.204390613,53.5595631 L3.01476154,44.2999145 L0.357683573,36.6261725 C0.323959122,36.4900915 0.30658592,36.3366167 0.30658592,36.165748 C0.170666162,35.3134511 0.0684708554,34.4949186 0,33.7101506 C0,33.6415985 0,33.5566758 0,33.4543592 C0.477252082,24.4842665 3.88342165,16.7931307 10.2195307,10.3819751 C16.4871688,4.00560717 24.0669947,0.560608624 32.9579864,0.0490258282 Z M54.2657078,12.2246964 C48.33838,6.56249798 41.3216503,3.93705507 33.2134746,4.34632131 C25.4129069,4.78935201 18.770212,7.80769051 13.2853899,13.4013368 C7.7668433,18.9949831 4.80317941,25.7304822 4.39439818,33.6088572 C4.39439818,34.1879689 4.42914459,34.7854976 4.49659349,35.399397 L7.30696442,43.63588 C7.47763058,44.0789107 7.47763058,44.5055708 7.30696442,44.914837 L5.00757002,52.6908955 L9.24867525,53.9698525 C9.58898562,54.1069567 9.91294474,54.3105666 10.2195307,54.5837518 C10.4239213,54.856937 10.5945874,55.1812805 10.7305072,55.5557591 L13.9496593,68.2941708 C15.3803936,69.8964481 17.1177139,70.6136871 19.16162,70.4428185 C21.8524224,70.1358688 24.9182816,68.5847498 28.3591976,65.7874151 C28.4613929,65.7536506 28.5635882,65.6687278 28.6657835,65.5316237 L28.7679788,65.5316237 L28.7679788,65.4804654 C35.7172597,59.8868191 39.3962907,53.7652194 39.8050719,47.114643 C39.8725208,46.5692958 40.1280091,46.0914774 40.5715367,45.6832344 C41.0150643,45.2739681 41.5260409,45.0683118 42.1044663,45.0683118 C42.7176382,45.0683118 43.1938683,45.3067094 43.5341787,45.7845277 C43.9429599,46.2285816 44.1483724,46.7565351 44.1483724,47.3704344 C43.875511,54.8743309 39.9747161,61.7980924 32.4470098,68.1406959 L33.9799394,75.0470637 L57.48486,66.5547892 L52.6305829,56.5789247 C52.4599167,56.1011064 52.4088191,55.6069174 52.4772899,55.0953346 C52.5805072,54.6523039 52.8012491,54.2604315 53.1415594,53.9197174 C53.7547313,53.441899 54.3168055,52.9303162 54.827782,52.384969 C60.0734671,47.1320368 62.8501136,40.8405916 63.1556775,33.5075638 C63.1556775,32.995981 63.1556775,32.5181627 63.1556775,32.075132 C62.9870553,24.1957338 60.0223694,17.5789219 54.2657078,12.2246964 Z" id="Shape"></path>
                </g>
                <path d="M488.64492,37.8 C491.754783,37.8 494.1,40.1350775 494.1,43.231496 C494.1,47.56287 489.809414,51.5530187 482.225679,58.2325055 L482.16322,58.287498 L482.10417,58.3462925 L481.950068,58.5 L481.79583,58.3464283 L481.73678,58.2876338 L481.674321,58.2326413 C474.090722,51.5530187 469.8,47.56287 469.8,43.2316318 C469.8,40.1352133 472.145217,37.8001358 475.25508,37.8001358 C476.97366,37.8001358 478.741198,38.6236658 479.86778,39.9494608 L481.950068,42.3992758 L484.03222,39.949325 C485.158802,38.62353 486.92634,37.8 488.64492,37.8 Z" id="Shape" fill="#FFC552" fill-rule="nonzero"></path>
                <path d="M429.977106,61.4501597 C429.886128,57.8661163 429.397131,54.4976196 428.510099,51.3445687 C427.623067,48.1915178 426.372144,45.4468168 424.757291,43.1103834 C423.142439,40.77395 421.175077,38.9252464 418.855148,37.5642173 C416.535219,36.2031881 413.896907,35.5226837 410.940135,35.5226837 C407.937873,35.5226837 405.254074,36.2258716 402.888656,37.6322684 C400.523238,39.0386652 398.533132,40.9667609 396.91828,43.4166134 C395.303427,45.8664659 394.063876,48.735926 393.199588,52.0250799 C392.335301,55.3142337 391.903164,58.8188312 391.903164,62.5389776 C391.903164,66.259124 392.335301,69.7523798 393.199588,73.0188498 C394.063876,76.2853198 395.303427,79.1320965 396.91828,81.5592652 C398.533132,83.9864339 400.523238,85.9031879 402.888656,87.3095847 C405.254074,88.7159815 407.937873,89.4191693 410.940135,89.4191693 C413.987885,89.4191693 416.694428,88.7159815 419.059846,87.3095847 C421.425265,85.9031879 423.41537,83.9864339 425.030223,81.5592652 C426.645075,79.1320965 427.873255,76.2853198 428.714798,73.0188498 C429.556341,69.7523798 429.977106,66.259124 429.977106,62.5389776 L429.977106,61.4501597 Z M440.143804,96.9728435 L429.977106,96.9728435 L429.977106,86.4929712 C427.566199,90.4853235 424.632215,93.4908845 421.175066,95.5097444 C417.717916,97.5286043 414.169842,98.5380192 410.530738,98.5380192 C405.799901,98.5380192 401.637738,97.5966548 398.044122,95.7138978 C394.450506,93.8311407 391.436918,91.2679076 389.003267,88.0241214 C386.569615,84.7803352 384.727346,80.9695107 383.476404,76.5915335 C382.225462,72.2135564 381.6,67.5294179 381.6,62.5389776 C381.6,57.5485373 382.202718,52.8643989 383.408171,48.4864217 C384.613625,44.1084446 386.421778,40.2862783 388.832684,37.0198083 C391.243591,33.7533383 394.234436,31.1787634 397.805307,29.2960064 C401.376178,27.4132494 405.52697,26.471885 410.257806,26.471885 C411.940892,26.471885 413.680813,26.7554285 415.477621,27.322524 C417.274429,27.8896194 419.037094,28.6721995 420.765668,29.6702875 C422.494243,30.6683756 424.15456,31.8592583 425.746668,33.2429712 C427.338776,34.6266842 428.748908,36.1351356 429.977106,37.7683706 L429.977106,0 L440.143804,0 L440.143804,96.9728435 Z M535.344328,75.1648562 C535.389817,77.705444 535.833326,79.8603745 536.674869,81.6297125 C537.516412,83.3990504 538.642243,84.8281096 540.052396,85.9169329 C541.462549,87.0057562 543.134238,87.799678 545.067512,88.298722 C547.000787,88.7977661 549.104612,89.0472843 551.379053,89.0472843 C553.244094,89.0472843 555.188711,88.8771583 557.212963,88.536901 C559.237215,88.1966437 561.102228,87.6182149 562.808059,86.8015974 C564.513889,85.9849799 565.924021,84.8734895 567.038497,83.4670927 C568.152973,82.0606958 568.710202,80.268701 568.710202,78.0910543 C568.710202,76.1402458 568.118857,74.4616684 566.936148,73.0552716 C565.753438,71.6488748 564.184098,70.4126251 562.228079,69.3464856 C560.272061,68.2803461 558.054514,67.32764 555.575374,66.4883387 C553.096234,65.6490373 550.560271,64.7643816 547.967409,63.834345 C545.374547,62.9043084 542.838584,61.8948936 540.359444,60.8060703 C537.880304,59.717247 535.662758,58.4129469 533.706739,56.893131 C531.75072,55.3733151 530.18138,53.5813202 528.998671,51.5170927 C527.815962,49.4528651 527.224616,46.9690241 527.224616,44.0654952 C527.224616,41.0258634 527.895566,38.3718963 529.237486,36.1035144 C530.579406,33.8351324 532.364815,31.9637454 534.593766,30.4892971 C536.822718,29.0148489 539.392797,27.9147001 542.304081,27.1888179 C545.215365,26.4629357 548.240325,26.1 551.379053,26.1 C554.92718,26.1 558.236441,26.4742774 561.306936,27.2228435 C564.37743,27.9714095 567.049858,29.1169252 569.324298,30.6594249 C571.598738,32.2019246 573.406891,34.1640456 574.748811,36.5458466 C576.090731,38.9276477 576.829913,41.7517409 576.96638,45.0182109 C576.102092,45.0182109 575.146842,44.9955274 574.100599,44.9501597 C573.054356,44.9047921 572.190082,44.8821086 571.50775,44.8821086 L566.594983,44.8821086 C566.367539,43.0220354 565.81031,41.4682171 564.923278,40.220607 C564.036246,38.972997 562.921787,37.9749239 561.579867,37.2263578 C560.237947,36.4777918 558.691351,35.94473 556.940032,35.6271565 C555.188713,35.3095831 553.335072,35.1507987 551.379053,35.1507987 C546.875661,35.1507987 543.441307,35.9787457 541.075889,37.6346645 C538.710471,39.2905834 537.52778,41.4795391 537.52778,44.2015974 C537.52778,46.016303 538.119125,47.5928048 539.301835,48.9311502 C540.484544,50.2694955 542.053884,51.4603782 544.009903,52.5038339 C545.965921,53.5472896 548.183468,54.5226792 550.662608,55.4300319 C553.141748,56.3373847 555.689083,57.2560656 558.304689,58.1861022 C560.920296,59.1161388 563.467631,60.1255537 565.946771,61.214377 C568.425911,62.3032003 570.643457,63.5734752 572.599476,65.0252396 C574.555495,66.4770041 576.124835,68.1669233 577.307544,70.0950479 C578.490253,72.0231726 579.081599,74.3028622 579.081599,76.9341853 C579.081599,80.6996993 578.331045,83.9094117 576.829914,86.5634185 C575.328783,89.2174254 573.315934,91.3950394 570.791305,93.0963259 C568.266676,94.7976123 565.32132,96.033862 561.955148,96.8051118 C558.588976,97.5763617 555.063646,97.9619808 551.379053,97.9619808 C547.830926,97.9619808 544.464804,97.4969695 541.280588,96.5669329 C538.096371,95.6368963 535.298851,94.2191789 532.887945,92.313738 C530.477038,90.4082972 528.543792,88.0265319 527.088151,85.1683706 C525.632509,82.3102094 524.836466,78.9757379 524.7,75.1648562 L535.344328,75.1648562 Z M602.947435,0 L602.947435,11.9769968 L592.780738,11.9769968 L592.780738,0 L602.947435,0 Z M602.947435,27.6968051 L602.947435,96.9728435 L592.780738,96.9728435 L592.780738,27.6968051 L602.947435,27.6968051 Z M676.843635,98.6741214 C676.843635,103.437723 676.024849,107.634167 674.387252,111.263578 C672.749655,114.892989 670.566225,117.932576 667.836896,120.382428 C665.107568,122.832281 661.980259,124.680984 658.454876,125.928594 C654.929494,127.176204 651.279072,127.8 647.503501,127.8 C644.228306,127.8 641.157858,127.391697 638.292063,126.57508 C635.426268,125.758462 632.787957,124.488188 630.37705,122.764217 C627.966143,121.040247 625.828201,118.851291 623.96316,116.197284 C622.098119,113.543277 620.528778,110.378932 619.255092,106.704153 L629.558255,106.704153 C631.468785,110.923344 633.879656,113.974272 636.79094,115.857029 C639.702223,117.739786 643.273041,118.68115 647.503501,118.68115 C650.096363,118.68115 652.541349,118.193455 654.838534,117.218051 C657.135719,116.242647 659.148569,114.89298 660.877143,113.16901 C662.605718,111.445039 663.970362,109.392184 664.971116,107.010383 C665.971869,104.628582 666.472239,102.031324 666.472239,99.2185304 L666.472239,87.1054313 C664.061332,90.8709453 661.13872,93.717722 657.704315,95.6458466 C654.26991,97.5739713 650.755952,98.5380192 647.162336,98.5380192 C642.4315,98.5380192 638.189732,97.585313 634.436906,95.6798722 C630.684079,93.7744314 627.477166,91.177173 624.816071,87.8880192 C622.154975,84.5988653 620.119382,80.7540156 618.709229,76.3533546 C617.299076,71.9526937 616.59401,67.2572135 616.59401,62.2667732 C616.59401,57.2763329 617.299076,52.6035362 618.709229,48.2482428 C620.119382,43.8929495 622.120859,40.1048084 624.713721,36.8837061 C627.306584,33.6626037 630.42252,31.122054 634.061625,29.2619808 C637.70073,27.4019076 641.749173,26.471885 646.207076,26.471885 C647.753695,26.471885 649.40264,26.6420111 651.153959,26.9822684 C652.905278,27.3225257 654.667943,27.9122961 656.442007,28.7515974 C658.21607,29.5908988 659.955991,30.7364145 661.661821,32.1881789 C663.367652,33.6399434 664.971108,35.4546217 666.472239,37.6322684 L666.472239,27.6968051 L676.843635,27.6968051 L676.843635,98.6741214 Z M666.472239,61.4501597 C666.381261,57.8661163 665.903636,54.4976196 665.039349,51.3445687 C664.175061,48.1915178 662.946882,45.4468168 661.354773,43.1103834 C659.762665,40.77395 657.806676,38.9252464 655.486747,37.5642173 C653.166817,36.2031881 650.55125,35.5226837 647.639966,35.5226837 C644.637705,35.5226837 641.862929,36.2145298 639.315556,37.5982428 C636.768183,38.9819558 634.562009,40.8873681 632.696967,43.3145367 C630.831926,45.7417054 629.376306,48.5771403 628.330064,51.8209265 C627.283821,55.0647127 626.760708,58.5466268 626.760708,62.2667732 C626.760708,65.9869196 627.283821,69.4915171 628.330064,72.7806709 C629.376306,76.0698248 630.831926,78.9506266 632.696967,81.4231629 C634.562009,83.8956993 636.768183,85.8464785 639.315556,87.2755591 C641.862929,88.7046397 644.637705,89.4191693 647.639966,89.4191693 C650.642228,89.4191693 653.314655,88.7159815 655.657329,87.3095847 C658.000002,85.9031879 659.967364,83.9864339 661.559472,81.5592652 C663.15158,79.1320965 664.368388,76.2853198 665.209931,73.0188498 C666.051474,69.7523798 666.472239,66.259124 666.472239,62.5389776 L666.472239,61.4501597 Z M690.49021,27.6968051 L700.793373,27.6968051 L700.793373,38.1766773 C704.386989,34.0482222 708.276224,31.0653447 712.461194,29.2279553 C716.646165,27.3905659 720.922049,26.471885 725.288974,26.471885 C728.564168,26.471885 731.48678,26.948238 734.056898,27.9009585 C736.627016,28.8536789 738.810446,30.2260294 740.607254,32.0180511 C742.404062,33.8100729 743.768706,35.9876869 744.701226,38.5509585 C745.633747,41.1142301 746.1,44.0063737 746.1,47.227476 L746.1,96.9728435 L735.933302,96.9728435 L735.933302,48.4523962 C735.933302,46.0932789 735.649001,44.085791 735.080391,42.4298722 C734.511781,40.7739534 733.681623,39.4356281 732.589891,38.4148562 C731.49816,37.3940844 730.167632,36.6568713 728.598268,36.2031949 C727.028905,35.7495185 725.26624,35.5226837 723.310221,35.5226837 C720.171493,35.5226837 717.237509,36.0784289 714.50818,37.1899361 C711.778852,38.3014433 709.390725,39.7758694 707.343729,41.6132588 C705.296733,43.4506482 703.693276,45.5602117 702.533311,47.9420128 C701.373347,50.3238138 700.793373,52.7849713 700.793373,55.3255591 L700.793373,96.9728435 L690.49021,96.9728435 L690.49021,27.6968051 Z" id="design" fill="#FFC552"></path>
                <text id="dgesin" font-family="KannadaSangamMN, Kannada Sangam MN" font-size="129.6" font-weight="normal" line-spacing="129.6" fill="#FFFFFF">
                    <tspan x="0" y="135.2">dgesin</tspan>
                </text>
            </g>
        </g>
    </g>
</svg>